<?xml version="1.0" encoding="UTF-8"?>
<svg width="1200pt" height="1200pt" version="1.1" viewBox="0 0 1200 1200" xmlns="http://www.w3.org/2000/svg">
 <path d="m1048.7 562.27v-372.28c0-67.441-54.867-122.31-122.31-122.31h-794.79c-67.441 0-122.31 54.867-122.31 122.31v649.7c0 67.441 54.867 122.31 122.31 122.31h472.69c51.176 100.88 155.7 170.32 276.35 170.32 170.92 0 309.97-139.05 309.97-309.97 0.003906-108.96-56.637-204.79-141.91-260.09zm-917.1 344.34c-36.906 0-66.922-30.02-66.922-66.922v-649.7c0-36.906 30.02-66.922 66.922-66.922h794.79c36.906 0 66.922 30.02 66.922 66.922v343.9c-34.984-13.719-72.887-21.508-112.67-21.508-18.258 0-36.055 1.9023-53.465 4.9492l-90.277-73.383c-0.12891-0.09375-0.25781-0.14844-0.38672-0.25781-0.77344-0.60938-1.6055-1.0898-2.4375-1.6055-0.75781-0.48047-1.4766-0.99609-2.2695-1.3828-0.58984-0.29688-1.2188-0.48047-1.8477-0.73828-1.0703-0.44141-2.125-0.90625-3.2305-1.2188-0.40625-0.10938-0.84766-0.12891-1.2734-0.23828-1.293-0.29687-2.6211-0.57422-3.9336-0.66406-0.51562-0.035156-1.0703 0.019531-1.5859 0-1.2188-0.019531-2.457-0.054688-3.6758 0.09375-0.66406 0.074219-1.3125 0.27734-1.9766 0.38672-1.1094 0.20312-2.1953 0.38672-3.2695 0.73828-0.60938 0.20312-1.1992 0.5-1.8281 0.75781-1.1094 0.42578-2.1797 0.86719-3.2305 1.4414-0.10938 0.074219-0.23828 0.09375-0.35156 0.16797l-125.39 72.055-149.06-138.89c-0.14844-0.14844-0.37109-0.18359-0.51562-0.3125-2.5117-2.2539-5.3164-3.9336-8.3242-5.1133-0.37109-0.14844-0.71875-0.29688-1.0898-0.42578-3.0078-1.0352-6.1094-1.5156-9.2695-1.4766-0.40625 0-0.8125 0-1.2188 0.019531-3.082 0.16797-6.1289 0.88672-9.0469 2.1055-0.42578 0.16797-0.83203 0.33203-1.2539 0.53516-2.1406 1.0156-4.2109 2.2344-6.1094 3.8398l-282.25 240c-11.648 9.8945-13.07 27.379-3.1562 39.027 5.4648 6.4414 13.273 9.7461 21.102 9.7461 6.3516 0 12.719-2.1602 17.926-6.5898l263.54-224.07 220.8 205.77c-38.512 51.656-61.625 115.46-61.625 184.69 0 29.242 4.3398 57.414 11.945 84.258zm537.58-310.27-46.543-43.367 94.098-54.055 45.582 37.035c-34.723 14.418-66.09 35.078-93.137 60.387zm211.46 480.59c-140.38 0-254.59-114.22-254.59-254.59 0-140.36 114.22-254.59 254.59-254.59s254.59 114.22 254.59 254.59c0 140.37-114.2 254.59-254.59 254.59z"/>
 <path d="m219.16 386.44c64.395 0 116.79-52.395 116.79-116.79 0-64.395-52.395-116.79-116.79-116.79s-116.79 52.395-116.79 116.79c0.003906 64.395 52.395 116.79 116.79 116.79zm0-178.21c33.859 0 61.402 27.543 61.402 61.402s-27.543 61.402-61.402 61.402-61.402-27.543-61.402-61.402c0-33.855 27.543-61.402 61.402-61.402z"/>
 <path d="m898.56 667.33c-0.10938-0.09375-0.23828-0.14844-0.37109-0.23828-0.38672-0.35156-0.83203-0.62891-1.2383-0.94141-0.64453-0.46094-1.3281-0.90625-2.0117-1.3125-0.44141-0.27734-0.86719-0.57422-1.3281-0.83203-0.40625-0.22266-0.86719-0.38672-1.2734-0.58984-0.71875-0.33203-1.4414-0.58984-2.1797-0.86719-0.51562-0.20312-1.0352-0.42578-1.5703-0.58984-0.42578-0.12891-0.88672-0.20312-1.3125-0.3125-0.73828-0.18359-1.4961-0.3125-2.2539-0.42578-0.55469-0.09375-1.1094-0.22266-1.6602-0.27734-0.5-0.054687-1.0352-0.035156-1.5312-0.054687-0.38672-0.019531-0.73828-0.10938-1.125-0.10938s-0.73828 0.09375-1.125 0.10938c-0.5 0.019531-1.0352 0-1.5312 0.054687-0.55469 0.054688-1.1094 0.18359-1.6602 0.27734-0.75781 0.12891-1.5156 0.25781-2.2539 0.42578-0.42578 0.10938-0.88672 0.18359-1.3125 0.3125-0.53516 0.16797-1.0508 0.38672-1.5703 0.58984-0.73828 0.27734-1.457 0.53516-2.1797 0.86719-0.40625 0.20313-0.84766 0.38672-1.2734 0.58984-0.44141 0.25781-0.88672 0.55469-1.3477 0.83203-0.68359 0.40625-1.3477 0.84766-1.9766 1.3125-0.42578 0.3125-0.86719 0.58984-1.2539 0.94141-0.12891 0.09375-0.25781 0.14844-0.37109 0.23828l-111.16 93.875c-11.688 9.8594-13.164 27.324-3.2852 39.008 5.4648 6.5 13.293 9.8203 21.156 9.8203 6.3125 0 12.664-2.1406 17.852-6.5352l65.594-55.402v208.1c0 15.285 12.406 27.691 27.691 27.691 15.285 0 27.691-12.406 27.691-27.691l0.007813-208.07 65.594 55.402c5.1875 4.3945 11.539 6.5352 17.852 6.5352 7.8828 0 15.711-3.3398 21.156-9.8203 9.875-11.688 8.3984-29.152-3.2852-39.008z"/>
</svg>
