<?xml version="1.0" encoding="UTF-8"?>
<svg width="1200pt" height="1200pt" version="1.1" viewBox="0 0 1200 1200" xmlns="http://www.w3.org/2000/svg">
 <path d="m0 225v849.98c0 69.047 56.016 125.02 125.02 125.02h849.98c33.141 0 65.016-13.172 88.359-36.609 23.531-23.438 36.656-55.219 36.656-88.406v-762.47c0-22.172-13.781-41.953-34.5-49.641l-93.656-34.781-34.734-93.562c-7.6406-20.766-27.516-34.547-49.641-34.547h-762.47c-33.141 0-65.016 13.172-88.406 36.609-23.484 23.438-36.609 55.266-36.609 88.406zm378 579.84c-55.734-19.359-115.64-29.859-177.98-29.859-52.031 0-102.38 7.3125-150 21v279c0 41.438 33.609 75 75 75h70.875c27.469-132.32 91.875-251.16 182.11-345.14zm672-147.05c-51.984-13.266-106.36-20.297-162.52-20.297-172.5 0-329.63 66.703-446.72 175.69-0.375 0.42188-0.75 0.79688-1.2656 1.1719-94.641 88.5-163.13 204.71-192.37 335.63h727.87c19.875 0 39-7.875 53.016-21.938 14.109-14.062 21.984-33.141 21.984-53.062zm-217.87-507.79h-707.11c-19.875 0-39 7.9219-53.016 21.984-14.109 14.062-21.984 33.141-21.984 53.016v519.14c47.859-12.469 98.25-19.125 150-19.125 76.969 0 150.47 14.672 217.97 41.344 124.78-111.23 289.26-178.87 469.5-178.87 55.875 0 110.39 6.5156 162.52 18.844v-238.4l-78.141 28.969s-34.734 93.609-34.734 93.609c-7.6406 20.719-27.516 34.5-49.641 34.5s-42-13.781-49.594-34.5c0 0-34.781-93.609-34.781-93.609l-93.609-34.734c-20.766-7.7344-34.5-27.516-34.5-49.641 0-22.172 13.734-41.953 34.5-49.641l93.609-34.781zm-457.13 112.5c-62.109 0-112.5 50.391-112.5 112.5s50.391 112.5 112.5 112.5 112.5-50.391 112.5-112.5-50.391-112.5-112.5-112.5zm509.76 210.56-38.766-104.3c-2.625-6.8438-7.875-12.188-14.766-14.719l-104.34-38.766c-1.125-0.42188-1.875-1.5469-1.875-2.7656 0-1.2656 0.75-2.3438 1.875-2.8125l104.34-38.719c6.8906-2.5312 12.141-7.9219 14.766-14.766l38.766-104.3c0.375-1.125 1.5-1.9219 2.7188-1.9219 1.2656 0 2.3906 0.79688 2.7656 1.9219l38.766 104.3c2.625 6.8438 7.875 12.234 14.719 14.766l104.39 38.719c1.125 0.46875 1.875 1.5469 1.875 2.8125 0 1.2188-0.75 2.3438-1.875 2.7656l-104.39 38.766c-6.8438 2.5312-12.094 7.875-14.719 14.719l-38.766 104.3c-0.375 1.1719-1.5 1.9219-2.7656 1.9219-1.2188 0-2.3438-0.75-2.7188-1.9219zm-509.76-160.55c34.5 0 62.484 27.984 62.484 62.484s-27.984 62.484-62.484 62.484-62.484-27.984-62.484-62.484 27.984-62.484 62.484-62.484zm676.87-112.31c5.4844 14.906 19.734 24.797 35.625 24.797s30.141-9.8906 35.625-24.797l14.109-37.922 38.016-14.109c14.859-5.5312 24.75-19.781 24.75-35.672s-9.8906-30.141-24.75-35.672l-38.016-14.109-14.109-37.922c-5.4844-14.906-19.734-24.797-35.625-24.797s-30.141 9.8906-35.625 24.797l-14.109 37.922-38.016 14.109c-14.859 5.5312-24.75 19.781-24.75 35.672s9.8906 30.141 24.75 35.672l38.016 14.109zm35.625-127.82 6.8906 18.516c2.4844 6.8438 7.875 12.188 14.719 14.719l18.516 6.8906-18.516 6.8906c-6.8438 2.5312-12.234 7.875-14.719 14.719l-6.8906 18.516-6.8906-18.516c-2.4844-6.8438-7.875-12.188-14.719-14.719l-18.516-6.8906 18.516-6.8906c6.8438-2.5312 12.234-7.875 14.719-14.719z" fill-rule="evenodd"/>
</svg>
