<?xml version="1.0" encoding="UTF-8"?>
<svg width="1200pt" height="1200pt" version="1.1" viewBox="0 0 1200 1200" xmlns="http://www.w3.org/2000/svg">
 <path d="m119.52 787.12c-28.352-0.003906-55.543 11.258-75.594 31.301-20.051 20.047-31.316 47.238-31.32 75.59 0 28.355 11.262 55.547 31.309 75.594 20.047 20.051 47.238 31.316 75.59 31.316 28.352 0 55.543-11.262 75.594-31.309 20.047-20.047 31.312-47.238 31.312-75.594-0.03125-28.34-11.301-55.512-31.34-75.551-20.039-20.043-47.211-31.316-75.551-31.348zm0 155.63c-12.93 0.003907-25.332-5.1289-34.473-14.27-9.1445-9.1406-14.285-21.543-14.285-34.473s5.1367-25.328 14.277-34.473c9.1445-9.1406 21.543-14.277 34.473-14.277 12.93 0.003906 25.328 5.1406 34.469 14.285s14.277 21.547 14.273 34.473c-0.019531 12.922-5.1562 25.309-14.293 34.441-9.1367 9.1367-21.52 14.277-34.441 14.293zm154.35-636.78c0-7.707 3.0586-15.098 8.5078-20.547 5.4492-5.4453 12.836-8.5078 20.543-8.5078h855.4c10.379 0 19.969 5.5391 25.16 14.527 5.1875 8.9883 5.1875 20.062 0 29.051-5.1914 8.9883-14.781 14.527-25.16 14.527h-855.38c-7.707 0.007812-15.105-3.0508-20.559-8.5-5.4531-5.4492-8.5156-12.844-8.5156-20.551zm913.5 588.05c0 7.707-3.0586 15.098-8.5078 20.547-5.4492 5.4453-12.84 8.5078-20.543 8.5078h-855.38c-10.379 0-19.969-5.5391-25.16-14.527-5.1875-8.9883-5.1875-20.062 0-29.051 5.1914-8.9883 14.781-14.527 25.16-14.527h855.38c7.7031 0 15.094 3.0625 20.543 8.5078 5.4492 5.4492 8.5078 12.84 8.5078 20.543zm-1067.8-400.91c-28.348 0-55.535 11.258-75.582 31.305-20.043 20.047-31.305 47.234-31.305 75.582s11.262 55.535 31.305 75.582c20.047 20.047 47.234 31.305 75.582 31.305 28.348 0 55.535-11.258 75.582-31.305 20.047-20.047 31.309-47.234 31.309-75.582-0.035156-28.34-11.309-55.508-31.344-75.543-20.039-20.039-47.207-31.312-75.547-31.344zm0 155.62c-12.926 0-25.32-5.1367-34.457-14.273-9.1406-9.1406-14.273-21.535-14.273-34.461s5.1328-25.32 14.273-34.461c9.1367-9.1367 21.531-14.273 34.457-14.273s25.32 5.1367 34.461 14.273c9.1367 9.1406 14.273 21.535 14.273 34.461-0.019531 12.918-5.1562 25.305-14.293 34.441-9.1367 9.1367-21.52 14.273-34.441 14.293zm1067.8-48.734c0 7.707-3.0586 15.094-8.5078 20.543s-12.84 8.5078-20.543 8.5078h-855.38c-10.379 0-19.969-5.5352-25.16-14.523-5.1875-8.9883-5.1875-20.066 0-29.055 5.1914-8.9883 14.781-14.523 25.16-14.523h855.38c7.7031 0 15.094 3.0586 20.543 8.5078s8.5078 12.836 8.5078 20.543zm-1067.8-400.91c-28.352-0.003907-55.547 11.258-75.598 31.305s-31.312 47.238-31.316 75.594c0 28.352 11.262 55.543 31.312 75.594 20.047 20.047 47.238 31.312 75.594 31.309 28.352 0 55.543-11.266 75.594-31.316 20.047-20.051 31.305-47.242 31.305-75.594-0.035156-28.34-11.309-55.508-31.344-75.547-20.039-20.039-47.207-31.309-75.547-31.344zm0 155.63c-12.93 0.003906-25.328-5.1289-34.473-14.27s-14.281-21.539-14.285-34.465c0-12.93 5.1328-25.328 14.273-34.473s21.539-14.281 34.469-14.281c12.93-0.003907 25.328 5.1328 34.469 14.273 9.1445 9.1445 14.281 21.543 14.281 34.473-0.015625 12.922-5.1523 25.309-14.289 34.445-9.1367 9.1406-21.523 14.281-34.445 14.297z"/>
</svg>
